# Blender v2.79 (sub 0) OBJ File: ''
# www.blender.org
mtllib board.mtl
o Cube
v 1.000000 -0.365116 -2.466117
v 1.000000 -0.365116 2.466117
v -1.000000 -0.365116 2.466117
v -1.000000 -0.365116 -2.466118
v 1.000000 0.365116 -2.466116
v 0.999999 0.365116 2.466119
v -1.000000 0.365116 2.466116
v -1.000000 0.365116 -2.466117
v 0.806787 0.365116 -1.989630
v 0.806786 0.365116 1.989632
v -0.806787 0.365116 -1.989631
v -0.806787 0.365116 1.989630
v 0.806787 0.365116 -1.989630
v 0.806786 0.365116 1.989632
v -0.806787 0.365116 -1.989631
v -0.806787 0.365116 1.989630
v 0.806787 -0.221605 -1.989630
v 0.806786 -0.221605 1.989632
v -0.806787 -0.221605 -1.989631
v -0.806787 -0.221605 1.989630
vn 0.0000 -1.0000 -0.0000
vn 0.0000 1.0000 -0.0000
vn 1.0000 -0.0000 0.0000
vn -0.0000 -0.0000 1.0000
vn -1.0000 -0.0000 -0.0000
vn 0.0000 0.0000 -1.0000
usemtl Material
s off
f 1//1 3//1 4//1
f 7//2 11//2 8//2
f 5//3 2//3 1//3
f 6//4 3//4 2//4
f 3//5 8//5 4//5
f 1//6 8//6 5//6
f 9//4 15//4 13//4
f 8//2 9//2 5//2
f 7//2 10//2 12//2
f 5//2 10//2 6//2
f 14//6 20//6 16//6
f 12//4 14//4 16//4
f 10//4 13//4 14//4
f 11//4 16//4 15//4
f 17//2 20//2 18//2
f 13//5 18//5 14//5
f 16//3 19//3 15//3
f 15//4 17//4 13//4
f 1//1 2//1 3//1
f 7//2 12//2 11//2
f 5//3 6//3 2//3
f 6//4 7//4 3//4
f 3//5 7//5 8//5
f 1//6 4//6 8//6
f 9//4 11//4 15//4
f 8//2 11//2 9//2
f 7//2 6//2 10//2
f 5//2 9//2 10//2
f 14//6 18//6 20//6
f 12//4 10//4 14//4
f 10//4 9//4 13//4
f 11//4 12//4 16//4
f 17//2 19//2 20//2
f 13//5 17//5 18//5
f 16//3 20//3 19//3
f 15//4 19//4 17//4
